<?xml version="1.0" encoding="UTF-8"?>
<svg width="15px" height="13px" viewBox="0 0 15 13" version="1.1" xmlns="http://www.w3.org/2000/svg" xmlns:xlink="http://www.w3.org/1999/xlink">
    <!-- Generator: Sketch 49.3 (51167) - http://www.bohemiancoding.com/sketch -->
    <title>Shape</title>
    <desc>Created with Sketch.</desc>
    <defs></defs>
    <g id="公开课首页" stroke="none" stroke-width="1" fill="none" fill-rule="evenodd">
        <path d="M10.7632353,0 C9.475,0 8.27647059,1.25294118 7.48823529,2.19411765 C6.69852941,1.25294118 5.50147059,0 4.21176471,0 C1.88970588,0 0,1.82352941 0,4.06470588 C0,5.40147059 0.676470588,6.33970588 1.22058824,7.09264706 C2.80147059,9.28235294 6.77794118,12.0058824 6.94558824,12.1205882 C7.10588235,12.2294118 7.29411765,12.2867647 7.48676471,12.2867647 C7.67647059,12.2867647 7.86617647,12.2308824 8.02794118,12.1205882 C8.19705882,12.0058824 12.1720588,9.28088235 13.7529412,7.09264706 C14.2970588,6.33970588 14.975,5.40147059 14.975,4.06470588 C14.975,1.82352941 13.0852941,0 10.7632353,0 Z" id="Shape" fill="#FFFFFF" fill-rule="nonzero"></path>
    </g>
</svg>